<svg width="28" height="29" viewBox="0 0 28 29" fill="none" xmlns="http://www.w3.org/2000/svg">
<path fill-rule="evenodd" clip-rule="evenodd" d="M22.8836 0C22.5131 0 22.173 0.204783 21.9997 0.532189L19.1465 5.92283C19.0702 6.06696 19.0303 6.22757 19.0303 6.39064V13.7241C19.0303 14.0712 19.2259 14.381 19.4567 14.6402C19.757 14.9775 19.9394 15.422 19.9394 15.9091C19.9394 16.9635 19.0847 17.8182 18.0303 17.8182C16.9759 17.8182 16.1212 16.9635 16.1212 15.9091C16.1212 15.422 16.3036 14.9775 16.6039 14.6402C16.8347 14.381 17.0303 14.0712 17.0303 13.7241V5.89398C17.0303 5.73091 17.0702 5.5703 17.1465 5.42617L19.2416 1.46781C19.5941 0.801813 19.1113 0 18.3578 0H18.1389C17.7456 0 17.3889 0.230475 17.2273 0.588963L13.8157 8.15544C13.7574 8.28464 13.7273 8.42475 13.7273 8.56647V17.7677C13.7273 18.1601 13.9749 18.5004 14.2585 18.7716C14.6221 19.1191 14.8485 19.6089 14.8485 20.1516C14.8485 21.2059 13.9937 22.0607 12.9394 22.0607C12.4859 22.0607 12.0693 21.9025 11.7418 21.6384C11.7402 21.6371 11.7382 21.6364 11.7362 21.6364H11.734C11.7303 21.6364 11.7273 21.6334 11.7273 21.6297C11.7273 21.6277 11.7264 21.6258 11.7248 21.6246C11.3007 21.2744 11.0303 20.7446 11.0303 20.1516C11.0303 19.7272 11.1688 19.3352 11.403 19.0182C11.5807 18.7777 11.7273 18.5033 11.7273 18.2044V8.13643C11.7273 7.99471 11.7574 7.8546 11.8157 7.7254L14.6627 1.41104C14.9611 0.749223 14.4771 0 13.7511 0H13.1914C12.7933 0 12.4331 0.236163 12.2743 0.601273L8.93142 8.29C8.87671 8.41581 8.84849 8.55153 8.84849 8.68872V21.3605C8.84849 21.7076 9.04408 22.0174 9.27487 22.2766C9.57514 22.6139 9.75758 23.0584 9.75758 23.5455C9.75758 24.5999 8.90285 25.4546 7.84849 25.4546C6.79413 25.4546 5.9394 24.5999 5.9394 23.5455C5.9394 23.0584 6.12184 22.6139 6.42211 22.2766C6.65289 22.0174 6.84849 21.7076 6.84849 21.3605V8.27275C6.84849 8.13556 6.87671 7.99984 6.93142 7.87402L9.74676 1.39873C10.0339 0.738282 9.54986 0 8.8297 0H1C0.447715 0 0 0.447715 0 1V27.8485C0 28.4008 0.447714 28.8485 0.999999 28.8485H2.39393C2.94622 28.8485 3.39393 28.4008 3.39393 27.8485V5.68951C3.39393 5.2657 3.10692 4.90597 2.78568 4.62952C2.37883 4.27941 2.12121 3.76073 2.12121 3.18188C2.12121 2.12752 2.97594 1.27279 4.0303 1.27279C5.08466 1.27279 5.93939 2.12752 5.93939 3.18188C5.93939 3.76074 5.68177 4.27942 5.27492 4.62953C4.95368 4.90597 4.66666 5.2657 4.66666 5.68952V27.8485C4.66666 28.4008 5.11438 28.8485 5.66666 28.8485H15.8182C16.3705 28.8485 16.8182 28.4008 16.8182 27.8485V23.7577C16.8182 23.4924 16.9235 23.2381 17.1111 23.0505L22.2526 17.9091C22.4401 17.7215 22.5455 17.4672 22.5455 17.202V10.0335C22.5455 9.68645 22.3499 9.37668 22.1191 9.11745C21.8188 8.78015 21.6364 8.33564 21.6364 7.84852C21.6364 6.79416 22.4911 5.93943 23.5455 5.93943C24.5998 5.93943 25.4545 6.79416 25.4545 7.84852C25.4545 8.33563 25.2721 8.78014 24.9718 9.11743C24.7411 9.37666 24.5455 9.68643 24.5455 10.0335V18.0304C24.5455 18.2956 24.4401 18.5499 24.2526 18.7375L19.1111 23.879C18.9235 24.0665 18.8182 24.3209 18.8182 24.5861V27.8485C18.8182 28.4008 19.2659 28.8485 19.8182 28.8485H21.1212C21.6735 28.8485 22.1212 28.4008 22.1212 27.8485V27.0032C22.1212 26.6561 21.9256 26.3464 21.6948 26.0871C21.3946 25.7498 21.2121 25.3053 21.2121 24.8182C21.2121 23.7639 22.0669 22.9091 23.1212 22.9091C24.1756 22.9091 25.0303 23.7639 25.0303 24.8182C25.0303 25.3053 24.8479 25.7499 24.5476 26.0871C24.3168 26.3464 24.1212 26.6561 24.1212 27.0032V27.8485C24.1212 28.4008 24.5689 28.8485 25.1212 28.8485H27C27.5523 28.8485 28 28.4008 28 27.8485V1C28 0.447715 27.5523 0 27 0H22.8836Z" fill="black"/>
</svg>
