<svg width="23" height="48" viewBox="0 0 23 48" fill="none" xmlns="http://www.w3.org/2000/svg">
<path d="M11.5 1.5C9 1.5 7 3.5 7 6C7 8.5 9 10.5 11.5 10.5C14 10.5 16 8.5 16 6C16 3.5 14 1.5 11.5 1.5Z" fill="white"/>
<path d="M10.4393 47.0607C11.0251 47.6464 11.9749 47.6464 12.5607 47.0607L22.1066 37.5147C22.6924 36.9289 22.6924 35.9792 22.1066 35.3934C21.5208 34.8076 20.5711 34.8076 19.9853 35.3934L11.5 43.8787L3.01472 35.3934C2.42893 34.8076 1.47918 34.8076 0.893398 35.3934C0.307612 35.9792 0.307612 36.9289 0.893398 37.5147L10.4393 47.0607ZM8.5 6C8.5 4.32843 9.82843 3 11.5 3V0C8.17157 0 5.5 2.67157 5.5 6H8.5ZM11.5 3C13.1716 3 14.5 4.32843 14.5 6H17.5C17.5 2.67157 14.8284 0 11.5 0V3ZM14.5 6C14.5 7.67157 13.1716 9 11.5 9V12C14.8284 12 17.5 9.32843 17.5 6H14.5ZM11.5 9C9.82843 9 8.5 7.67157 8.5 6H5.5C5.5 9.32843 8.17157 12 11.5 12V9ZM10 10.5V46H13V10.5H10Z" fill="white"/>
</svg>
